<svg xmlns="http://www.w3.org/2000/svg" xmlns:xlink="http://www.w3.org/1999/xlink" enable-background="new 0 0 467 489.9" preserveAspectRatio="xMidYMid meet" version="1.0" viewBox="-40.2 -36.0 545.4 573.7" zoomAndPan="magnify" style="fill: rgb(0, 0, 0);" original_string_length="7519"><filter xmlns:xlink="http://www.w3.org/1999/xlink" id="__id168_s9tbihn71w" xlink:actuate="onLoad" xlink:show="other" xlink:type="simple"><feGaussianBlur stdDeviation="7"/></filter><g id="__id169_s9tbihn71w"><path d="M340.9,489.9c-3.8,0-6.9-2.9-7.3-6.7c-1.6-18.5-3.9-37.2-6.8-55.6 c-0.3-1.9,0.2-3.9,1.3-5.4c1.1-1.6,2.8-2.6,4.8-2.9c0.4-0.1,0.8-0.1,1.1-0.1c3.6,0,6.6,2.6,7.2,6.2c2.9,18.7,5.3,37.7,6.9,56.6 c0.3,4-2.6,7.6-6.6,7.9C341.3,489.9,341.1,489.9,340.9,489.9z M280.6,489.9c-0.1,0-0.3,0-0.4,0c-1.9-0.1-3.7-1-5-2.5 s-1.9-3.3-1.8-5.3c3.3-54.2-1.3-108.5-13.8-161.4c-13.5-57-35.8-111.3-66.4-161.4c-1-1.7-1.3-3.6-0.9-5.5c0.5-1.9,1.6-3.5,3.3-4.5 c1.1-0.7,2.5-1.1,3.8-1.1c2.6,0,4.9,1.3,6.2,3.5c31.4,51.4,54.4,107.1,68.2,165.6c12.8,54.2,17.6,109.9,14.2,165.6 C287.7,486.9,284.5,489.9,280.6,489.9z M330.4,412.3c-3.5,0-6.5-2.5-7.2-6c-5.5-29.8-12.8-59.6-21.7-88.6 c-17.1-56-40.4-110.2-69.3-161.1c-1.4-2.5-1.2-5.6,0.4-7.9c1.4-1.9,3.6-3,5.9-3c0.5,0,1,0,1.4,0.1c37.6,7.8,74.1,20.3,108.4,37.3 c9.7,4.8,19.4,10.1,28.7,15.6c3.5,2,4.6,6.5,2.6,10c-1.3,2.2-3.7,3.6-6.3,3.6c-1.3,0-2.6-0.4-3.7-1c-9-5.3-18.4-10.4-27.8-15.1 c-28.4-14.1-58.3-25-89.1-32.6c25.8,47.7,46.8,98,62.7,149.8c9,29.5,16.4,59.8,22,90.2c0.4,1.9-0.1,3.9-1.2,5.5s-2.8,2.7-4.7,3 C331.4,412.2,330.9,412.3,330.4,412.3z M77.8,337.8c-2.6,0-5-1.4-6.3-3.6C62,318,41.4,275,54.1,223.8c0.8-3.3,3.7-5.5,7.1-5.5 c0.6,0,1.2,0.1,1.8,0.2c3.9,1,6.3,4.9,5.3,8.8c-7.9,31.8-1.3,60.3,6.2,79.6c5.4-23.9,16.1-54.4,37.5-84.7 c15-21.3,33.4-39.8,54.7-55.1c1.2-0.9,2.7-1.4,4.3-1.4c2.3,0,4.6,1.1,5.9,3c2.4,3.3,1.6,7.8-1.7,10.2 c-19.9,14.4-37.2,31.8-51.3,51.7C97.4,268.1,88.1,306.1,85,331.3c-0.4,3.1-2.7,5.6-5.8,6.3C78.8,337.7,78.3,337.8,77.8,337.8z M451.1,270.4c-1.9,0-3.6-0.7-5-2c-15.4-14.4-31.9-27.8-49.2-39.8c-3.3-2.3-4.1-6.9-1.8-10.2c1.4-2,3.6-3.1,6-3.1 c1.5,0,2.9,0.5,4.2,1.3c13.4,9.3,26.4,19.4,38.7,30.2c-0.9-23.6-7.6-59-35-89c-25.7-28.1-63.8-44.2-104.6-44.2 c-17.5,0-35,2.9-52,8.6c-0.8,0.3-1.5,0.4-2.3,0.4c-2.5,0-4.9-1.3-6.2-3.4c-1.8-2.9-1.4-6.6,1-9c15.5-15.6,34.4-27.1,54.6-33.3 c12.1-3.7,24.8-5.6,37.5-5.6c19.2,0,36.2,4.2,49.6,9.2c-11.3-15.1-26.6-26.7-44.1-33.3c-3.8-1.4-5.7-5.6-4.2-9.4 c1.1-2.8,3.8-4.7,6.8-4.7c0.9,0,1.7,0.2,2.6,0.5c28,10.6,51.3,32.6,63.8,60.5c1.3,2.9,0.6,6.3-1.8,8.4c-1.3,1.2-3.1,1.9-4.9,1.9 c-1.3,0-2.5-0.3-3.6-1c-11.4-6.5-34.9-17.5-64.1-17.5c-11.3,0-22.5,1.7-33.3,5c-7.7,2.4-15.3,5.7-22.5,9.7c7.7-1,15.4-1.5,23.1-1.5 c44.9,0,87,17.8,115.4,49c38.9,42.6,40,95,38.6,115.6c-0.2,2.8-2,5.3-4.6,6.3C452.9,270.3,452,270.4,451.1,270.4z M68.1,212.3 c-1,0-2-0.2-2.9-0.6c-1.8-0.8-3.2-2.2-3.9-4c-0.7-1.8-0.7-3.8,0.1-5.6c13.3-30.7,37.4-56.2,68.1-72.7c-18,2.3-35.6,6.6-52.7,12.9 c-21.2,7.8-41.1,18.7-59.4,32.2c-1.3,0.9-2.8,1.4-4.4,1.4c-1.3,0-2.6-0.4-3.8-1c-2.5-1.5-3.9-4.4-3.5-7.4 C11,132.6,30.2,102.2,58.5,84c1.2-0.8,2.5-1.2,3.9-1.2c2.5,0,4.8,1.3,6.1,3.4c2.2,3.4,1.2,7.9-2.2,10.1 c-19.7,12.6-34.6,32.5-42.1,55.6c14.9-9.4,30.8-17.3,47.3-23.4c28.2-10.4,57.8-15.7,88-15.7c4.8,0,9.8,0.1,14.6,0.4 c3.6,0.2,6.6,3.1,6.9,6.7c0.3,3.6-2.1,6.9-5.7,7.7C129.8,138,92.1,168,74.8,207.9C73.7,210.6,71,212.3,68.1,212.3z M178.3,101.7 c-1.5,0-2.9-0.4-4.2-1.3c-6.3-4.4-29.1-18.6-58.3-18.6c-6.1,0-12.2,0.6-18.1,1.8c-0.5,0.1-1,0.2-1.5,0.2c-3.4,0-6.4-2.5-7.1-5.8 c-0.8-3.9,1.7-7.8,5.7-8.6c6.9-1.4,13.9-2.1,21-2.1c10.9,0,22.1,1.7,33.1,5.1c-7.6-13.5-9.3-26.9-4.2-37.2 c6.8-13.7,23-17.3,37.3-20.5c1.6-0.4,3.3-0.7,5-1c0.4-0.1,0.9-0.1,1.3-0.1c3.5,0,6.6,2.5,7.2,6c0.7,4-1.9,7.8-5.9,8.5 c-1.5,0.3-2.9,0.6-4.3,0.9c-11.6,2.6-23.7,5.3-27.4,12.7c-5.6,11.2,5.4,31.8,25,46.9c3.2,2.4,3.8,6.9,1.5,10.1 C182.8,100.6,180.6,101.7,178.3,101.7z M218.5,98.2c-0.4,0-0.9,0-1.3-0.1c-3.2-0.6-5.6-3.1-6-6.3c-1.4-11.3-0.4-22.1,2.9-32.1 c3.9-11.7,10.2-19.2,14.3-24.1c1.2-1.4,3.1-3.7,3.7-4.9c-1.2-1.1-6-3.7-17.9-4.3c-4-0.2-7.1-3.6-6.9-7.7c0.2-3.9,3.4-6.9,7.3-6.9 c0.1,0,0.3,0,0.4,0c12.4,0.6,27.9,3.7,31.3,14.8c2.3,7.5-2.3,13-6.7,18.3c-4,4.8-8.6,10.3-11.7,19.4c-0.1,0.4-0.2,0.8-0.4,1.1 C242,49,266.7,29,302.7,26.7c0.2,0,0.3,0,0.5,0c3.8,0,7,3,7.3,6.8c0.3,4-2.8,7.5-6.8,7.8c-52.6,3.4-77.7,50.9-78.8,52.9 C223.8,96.7,221.3,98.2,218.5,98.2z" filter="url(#__id168_s9tbihn71w)" style="fill: rgb(225, 187, 157);"/></g><g id="__id170_s9tbihn71w"><path d="M280.6,484.9h-0.1c-1.3-0.1-2.2-1.2-2.2-2.4c3.4-54.7-1.3-109.5-13.9-162.8c-13.6-57.5-36.2-112.3-67-162.8 c-0.7-1.1-0.3-2.5,0.8-3.2s2.5-0.3,3.2,0.8c31.1,50.9,53.9,106.2,67.6,164.2c12.7,53.7,17.4,109,14,164.2 C282.8,483.9,281.8,484.9,280.6,484.9z M78.3,332.7c1-0.2,1.7-1,1.8-2c3.2-25.8,12.7-64.6,39.8-103c14.4-20.4,32.1-38.2,52.5-52.9 c1-0.7,1.3-2.2,0.5-3.2c-0.7-1-2.2-1.3-3.2-0.5c-20.8,15-38.8,33.1-53.5,53.9c-25.4,35.9-35.6,72.1-39.7,98.2 C67,305,52.9,268.4,63.4,226c0.3-1.2-0.4-2.5-1.7-2.8c-1.2-0.3-2.5,0.4-2.8,1.7c-12.2,49.4,7.7,91,16.9,106.6 c0.4,0.7,1.2,1.1,2,1.1C77.9,332.8,78.1,332.7,78.3,332.7z M70.2,205.9c17.9-41.4,56.9-72.4,104.2-83.1c1.1-0.3,1.9-1.3,1.8-2.4 c-0.1-1.1-1-2-2.2-2.1c-34.6-1.9-68.5,3.1-100.6,15c-20.2,7.5-39.4,17.6-57.2,30.2c6-29.8,23.1-55.6,47.6-71.3 c1.1-0.7,1.4-2.1,0.7-3.2c-0.7-1.1-2.1-1.4-3.2-0.7c-27.1,17.4-45.5,46.6-50.6,80c-0.1,0.9,0.3,1.8,1.1,2.3 c0.8,0.5,1.8,0.4,2.6-0.1c18.6-13.8,39-24.9,60.6-32.9c26.7-9.9,54.6-14.9,83.2-15.1c-41.9,13.7-75.8,43.3-92.3,81.6 c-0.5,1.2,0,2.5,1.2,3c0.3,0.1,0.6,0.2,0.9,0.2C69,207.3,69.8,206.8,70.2,205.9z M180.2,95.8c0.7-1,0.5-2.4-0.5-3.2 c-21.8-16.7-33.2-39.6-26.4-53.1c4.8-9.6,18-12.5,30.8-15.4c1.5-0.3,3-0.6,4.5-0.9c1.3-0.2,2.1-1.4,1.9-2.7 c-0.2-1.3-1.4-2.1-2.7-1.9c-1.6,0.3-3.2,0.6-4.7,0.9c-13.8,3.1-28.2,6.3-33.9,17.8c-6,12.1-0.4,29.7,13.5,45.5 c-15.7-7.2-39.6-14.2-66.8-8.6c-1.2,0.3-2,1.5-1.8,2.7c0.3,1.2,1.5,2,2.7,1.8c39.4-8.1,71.4,11.4,80.3,17.5 c0.4,0.3,0.9,0.4,1.3,0.4C179,96.7,179.7,96.4,180.2,95.8z M220.6,92c1.1-2.1,27.6-52,82.9-55.6c1.3-0.1,2.2-1.2,2.1-2.4 c-0.1-1.3-1.2-2.2-2.4-2.1c-46.5,3-73.5,37.2-82.9,51.7c-0.2-7.3,0.9-14.2,3.1-20.7c3.4-10,8.5-16.1,12.6-21s7.3-8.7,5.8-13.6 c-2.7-8.8-18-10.8-26.8-11.3c-1.3-0.1-2.3,0.9-2.4,2.2c-0.1,1.3,0.9,2.3,2.2,2.4c12.7,0.6,21.4,3.7,22.7,8c0.7,2.4-1.2,4.9-4.9,9.3 c-4.1,4.9-9.8,11.7-13.4,22.5c-3.1,9.3-4,19.3-2.7,29.9c0.1,1,0.9,1.8,1.9,2c0.1,0,0.3,0,0.4,0C219.4,93.2,220.2,92.8,220.6,92z M451.9,265.3c0.8-0.3,1.4-1.1,1.5-2c1.3-19.9,0.3-70.7-37.3-111.9c-37.9-41.6-98.7-57.2-157.2-41.2c12.8-11.1,27.7-19.3,43.4-24.2 c46.3-14.2,86.3,4.3,101.3,12.9c0.9,0.5,1.9,0.4,2.7-0.3c0.7-0.7,1-1.7,0.6-2.6c-12-26.7-34.2-47.7-61-57.9c-1.2-0.4-2.5,0.2-3,1.3 c-0.4,1.2,0.2,2.5,1.3,3c23.5,8.9,43.3,26.6,55.3,49.1c-18.8-9.5-56.1-23-98.6-9.9c-19.5,6-37.6,17.1-52.5,32 c-0.8,0.8-0.9,1.9-0.3,2.8s1.7,1.3,2.7,1c59.6-20,123.1-5.5,161.9,37c33.6,36.8,37,81.7,36.4,103.6c-14.7-13.4-30.3-26-46.6-37.3 c-1-0.7-2.5-0.5-3.2,0.6s-0.5,2.5,0.6,3.2c17.5,12.1,34.2,25.7,49.7,40.2c0.4,0.4,1,0.6,1.6,0.6 C451.4,265.4,451.7,265.4,451.9,265.3z M330.9,407.3c1.3-0.2,2.1-1.4,1.8-2.7c-5.6-30.2-13-60.3-21.9-89.6 c-16.8-55-39.6-108.4-67.6-158.6c35.1,7.6,69,19.6,101.1,35.5c9.5,4.7,19,9.8,28.1,15.2c1.1,0.6,2.5,0.3,3.1-0.8s0.3-2.5-0.8-3.1 c-9.2-5.5-18.8-10.6-28.4-15.4c-34-16.8-70-29.2-107.2-36.9c-0.9-0.2-1.8,0.2-2.3,0.9s-0.6,1.7-0.1,2.5 c29.1,51.3,52.5,105.8,69.7,162.1c8.9,29.1,16.2,59.1,21.8,89.1c0.2,1.1,1.2,1.9,2.3,1.9C330.6,407.3,330.7,407.3,330.9,407.3z M341.1,484.9c1.3-0.1,2.2-1.2,2.1-2.5c-1.6-18.7-3.9-37.7-6.8-56.3c-0.2-1.3-1.4-2.1-2.6-1.9c-1.3,0.2-2.1,1.4-1.9,2.6 c2.9,18.5,5.2,37.3,6.8,55.9c0.1,1.2,1.1,2.1,2.3,2.1C341,484.9,341.1,484.9,341.1,484.9z" style="fill: rgb(225, 187, 157);"/></g></svg>