<svg xmlns="http://www.w3.org/2000/svg" xmlns:xlink="http://www.w3.org/1999/xlink" preserveAspectRatio="xMidYMid meet" version="1.0" viewBox="-1.0 -1.2 254.0 476.8" zoomAndPan="magnify" style="fill: rgb(0, 0, 0);" original_string_length="27901"><g id="__id173_s9tbihn71w"><path d="M179.32391,51.29831c-4.97964,2.59298-9.40985,5.94187-13.67159,9.50083 c-22.81842,19.05551-40.47426,42.03424-52.36272,69.3392c-2.74659,6.30824-2.60501,6.33818,2.29349,10.95334 c1.7655,1.66341,3.49573,3.38371,5.06847,5.2262c1.30593,1.52995,2.03616,1.48123,3.02803-0.3047 c5.61066-10.10245,13.1036-18.70263,21.54322-26.5061c12.29042-11.36395,26.03406-20.22809,42.55626-24.10047 c4.13628-0.96945,8.39197-1.57504,12.62738-0.57486c5.88718,1.39025,7.5489,5.65094,4.22427,10.72052 c-2.39984,3.65944-5.44063,6.79145-8.58228,9.80202c-12.71078,12.18048-23.98297,25.47632-32.40648,41.0481 c-3.57465,6.60817-6.44765,13.49991-8.9619,20.56218c-0.81126,2.27887-1.57858,5.22972-4.83432,4.08282 c-3.28828-1.15842-1.94565-3.98657-1.18149-6.22705c7.00694-20.54271,18.40681-38.4093,33.21455-54.16967 c5.19531-5.52951,10.85948-10.61054,15.78253-16.40009c0.67586-0.79482,1.97212-1.60145,1.38025-2.77787 c-0.57883-1.15063-2.01599-0.68282-3.06546-0.63484c-10.07803,0.46073-19.18365,4.12714-27.61331,9.2683 c-19.46559,11.87183-34.71243,27.70229-44.08305,48.75524c-2.30415,5.1767-4.42421,10.43138-5.14535,16.12756 c-0.74829,5.91086,2.10922,10.78671,7.72093,12.94717c5.6906,2.19078,11.63869,2.33871,17.64035,2.19321 c10.00072-0.24249,20.0033-0.9971,29.98305,0.62741c23.07912,3.7569,40.91296,15.317,53.65813,35.02271 c11.41551,17.64993,18.17744,36.91911,21.44055,57.56059c3.40291,21.52588,3.02811,43.14221,1.5535,64.77158 c-1.24652,18.28513-3.42006,36.42786-8.45718,54.14935c-9.11978,32.08478-29.67657,52.93063-61.38936,62.82755 c-28.80225,8.98859-58.13112,10.51645-87.50896,3.94049c-30.30244-6.78284-54.96926-22.72922-72.33483-48.88913 c-8.85909-13.34555-13.28748-28.5358-16.71522-44.00955c-4.31968-19.5-5.75979-39.2627-3.98054-59.13272 c2.33224-26.04556,7.30028-51.50815,19.80103-74.87851c8.86928-16.5813,20.86947-30.19582,37.77164-39.15576 c15.11037-8.01012,30.68667-9.49277,46.98074-4.44041c6.45995,2.00305,12.75254,4.59831,19.55426,5.43033 c3.34125,0.40872,6.65213,0.3938,9.98732,0.13303c2.2688-0.1774,4.59929,0.08409,4.83226,2.85507 c0.23526,2.79878-2.02126,3.40971-4.30412,3.54492c-1.91853,0.1136-3.88174,0.41135-5.75583,0.14302 c-4.01638-0.57504-7.10777,0.90904-10.23585,3.27583c-11.94653,9.03917-24.31904,17.45525-37.54844,24.54639 c-0.43227,0.23172-0.80872,0.5676-1.18037,0.83293c-0.03782,1.01471,0.76419,1.22353,1.28366,1.59808 c14.69337,10.59451,29.87441,20.44681,45.38721,29.79428c1.07854,0.6499,1.98666,1.1561,3.30608,0.31985 c14.26131-9.03885,28.29713-18.41342,42.3555-28.02443c-0.67778-1.18997-1.81023-1.44418-2.70894-1.94261 c-6.10416-3.38536-12.11801-6.91747-17.92982-10.78734c-0.33675-0.22423-0.6895-0.42516-1.01953-0.65849 c-1.71999-1.21591-2.98853-2.78949-1.68144-4.84026c1.41008-2.21242,3.4574-1.69614,5.29559-0.42012 c6.7397,4.67847,13.92006,8.61571,21.0022,12.72844c2.3959,1.39136,4.02469,1.18983,6.21278-0.4097 c8.57869-6.2711,17.08624-12.6245,25.24731-19.43529c3.4449-2.87491,3.47359-2.86981-0.18849-5.70175 c-14.09464-10.89961-30.17311-15.63594-47.85722-15.40883c-8.18701,0.10513-16.37785,0.96298-24.55875,0.10262 c-2.80315-0.29478-5.62575-0.80208-8.32745-1.59427c-10.24517-3.0041-15.57482-12.06995-13.38038-22.62416 c1.07475-5.16887,2.75529-10.1676,5.06031-14.91074c0.95319-1.96143,0.63279-3.29544-0.70963-4.88309 c-11.62163-13.74452-26.48634-21.59731-44.11997-24.46398c-6.80644-1.10651-13.64803-1.74778-20.55423-1.25705 c-0.99123,0.07045-2.03299-0.08215-3.11974,0.66175c0.69585,1.35857,2.13561,1.67419,3.26434,2.3056 c15.82018,8.8502,29.60177,20.10144,40.53822,34.63655c4.69826,6.24425,8.21263,13.21371,11.57712,20.24503 c0.92585,1.93486,1.10666,3.89354-1.09561,4.96667c-2.21861,1.08109-3.61752-0.34195-4.58931-2.21921 c-1.57991-3.052-3.06943-6.15239-4.7076-9.17239c-10.55179-19.4525-26.90012-32.80923-45.80463-43.46785 c-2.02537-1.14191-4.0868-2.23059-6.04066-3.48547c-1.75842-1.12933-3.13781-2.5999-2.87834-4.95735 c0.27294-2.48021,2.00643-3.70533,4.09947-4.37759c4.47865-1.43855,9.15317-1.77934,13.80234-1.65459 c10.14812,0.27229,20.15614,1.60403,29.88226,4.68565c1.07663,0.34112,2.46573,1.53134,3.2858,0.44535 c0.69904-0.9257-0.49151-2.24197-0.99924-3.30471c-7.85902-16.4496-17.05871-32.14407-26.80997-47.52848 c-2.0568-3.24501-4.04683-6.53493-5.97345-9.85876c-0.96013-1.65646-1.83637-3.3868-2.52166-5.17161 c-1.13434-2.95425-2.27868-6.10554,0.14819-8.89087c2.54656-2.92267,5.88506-2.04522,9.05727-1.21364 c4.652,1.2195,8.84193,3.4733,12.84091,6.06576c15.33542,9.94162,29.72982,21.02064,41.80116,34.87827 c0.46503,0.53386,0.9603,1.04951,1.3624,1.62855c1.15721,1.66649,1.59039,3.44974-0.25194,4.83485 c-1.77634,1.3355-3.53368,0.69438-4.79349-0.91983c-6.215-7.96342-13.8031-14.48145-21.6302-20.75926 c-7.18643-5.76397-14.49101-11.35724-22.52085-15.92855c-2.64368-1.50504-5.33788-2.88719-8.31195-3.62939 c-0.56763-0.14167-1.18548-0.50947-1.7159-0.04516c-0.70343,0.61579-0.23277,1.36946,0.05129,1.94487 c1.1172,2.26317,2.2051,4.55553,3.52304,6.70253C74.0695,79.9091,84.18822,95.76738,92.55874,112.651 c2.47261,4.98737,5.01208,9.95005,6.8166,15.20832c0.88471,2.57801,2.9217,3.45345,4.89331,4.60006 c1.29606,0.75374,1.48112-0.36119,1.80684-1.19627c7.01274-17.97987,16.86057-34.34399,29.42215-48.89423 c4.28323-4.9613,5.25294-9.07182,3.84724-15.47567c-3.98466-18.15331-2.05103-36.20728,3.37488-53.9174 c0.40475-1.32111,1.14235-2.58843,0.95119-4.2615c-1.62863,0.41266-2.59775,1.6076-3.62843,2.60425 c-12.25279,11.84842-21.36212,25.8151-27.85517,41.53177c-0.81033,1.96143-1.5223,3.97194-2.46471,5.86782 c-0.82121,1.65204-2.28352,2.33076-4.06454,1.54233c-1.65066-0.73073-2.13486-2.21074-1.56855-3.8046 c1.14967-3.2356,2.33202-6.47454,3.75851-9.59429c7.05127-15.42088,16.24163-29.36102,28.76608-40.94181 c2.31033-2.13625,4.80193-4.05903,7.73067-5.28343c4.34079-1.81474,7.32761,0.37343,6.91077,5.01754 c-0.21906,2.44106-1.07863,4.72616-1.82089,7.03388c-5.67355,17.64039-7.58113,35.55169-3.8998,53.86663 c0.19272,0.95877,0.04681,2.35028,0.99632,2.67233c1.05011,0.3562,1.60622-0.99164,2.28673-1.6731 c7.67287-7.68336,15.85907-14.73563,25.09604-20.49897c1.88605-1.17681,3.79367-2.35702,5.97559-2.91743 c4.08418-1.049,6.81863,1.1861,6.62897,5.38815c-0.106,2.34751-0.79553,4.57932-1.47891,6.80067 c-3.54926,11.53766-6.43549,23.19421-6.70099,35.35822c-0.04266,1.95206-0.72607,3.73933-3.08499,3.74889 c-2.54984,0.01036-3.13718-1.82453-3.11987-3.95043c0.09384-11.54411,2.58159-22.67355,5.85378-33.66747 c0.57549-1.93345,1.08119-3.88792,1.59302-5.83954C179.62012,51.82493,179.45186,51.61963,179.32391,51.29831z M11.81834,345.13385 c0.94686,0.76859,1.6139,1.34229,2.31349,1.87308c18.06248,13.70566,37.03544,26.0719,56.12761,38.26962 c1.72996,1.10516,2.86661,0.68457,4.34962-0.17844c16.60574-9.66345,33.03905-19.60519,49.06411-30.21063 c0.78432-0.51904,1.51767-1.11511,2.45097-1.80569c-0.71214-0.44382-1.11819-0.72742-1.55083-0.9621 c-19.12588-10.37451-37.57005-21.86798-55.5751-34.06467c-2.04021-1.38205-3.47401-1.21771-5.42672-0.07874 c-10.56764,6.16394-21.34223,11.95441-32.26758,17.46008C24.91966,338.65363,18.50428,341.80908,11.81834,345.13385z M185.33583,310.2735c-0.52716-0.39975-0.87161-0.74106-1.28188-0.9577c-1.519-0.80206-3.06361-1.55524-4.59154-2.34061 c-16.18294-8.31815-32.0619-17.18774-47.7724-26.36169c-1.34402-0.78479-2.41399-1.36777-4.0955-0.31235 c-17.20728,10.80072-34.79741,20.96085-52.42883,31.0484c-1.63039,0.93286-2.77001,1.56543-0.38876,3.13925 c18.05238,11.93118,36.42878,23.31805,55.49608,33.57111c1.42261,0.76495,2.46593,0.7894,3.84999-0.15662 c16.95184-11.58694,33.26402-24.04681,49.71362-36.31912C184.30682,311.23337,184.72406,310.81161,185.33583,310.2735z M138.62711,422.97266c0.70862,0.4516,1.09587,0.75467,1.52808,0.96579c18.51956,9.04462,37.39417,17.28232,56.50906,24.98465 c2.2072,0.88931,3.85498,0.71295,5.86111-0.56454c16.82701-10.71588,27.23282-26.09818,33.14145-44.87494 c0.6803-2.16187-0.5547-2.35767-1.88684-2.87622c-12.51338-4.87109-25.04607-9.69431-37.50746-14.69519 c-2.09355-0.84021-3.46976-0.53763-5.17532,0.75876c-12.22879,9.29504-24.71188,18.23605-37.60753,26.59164 C148.59222,416.43588,143.71805,419.64508,138.62711,422.97266z M123.35328,275.60245 c-16.83932-10.07178-32.77264-20.60869-48.22223-31.86775c-1.1992-0.8739-2.0313-0.36848-3.00972,0.18092 c-16.75602,9.40878-33.79748,18.26727-51.2247,26.36786c-2.31955,1.07822-1.99516,1.73718-0.32427,3.20453 c14.00542,12.29919,28.71469,23.67554,44.1231,34.16315c1.62305,1.10474,2.80092,0.96445,4.36259,0.04703 c12.11799-7.11874,24.29333-14.13989,36.40945-21.26178C111.36315,282.97092,117.17008,279.35449,123.35328,275.60245z M186.84668,382.13254c-18.25293-7.92972-35.50948-16.11023-52.48074-24.88232c-1.63864-0.84698-2.61362-0.18073-3.80914,0.62476 c-10.23292,6.89447-20.68309,13.44873-31.23449,19.84149c-6.81312,4.12784-13.66196,8.19666-20.45396,12.26746 c0.25163,0.85074,0.85237,1.03418,1.35509,1.33658c16.12119,9.69589,32.51167,18.90381,49.30587,27.39175 c1.66646,0.84225,2.84367,0.76688,4.39655-0.23868c11.03622-7.14648,22.13116-14.20471,32.86195-21.80783 C173.36363,392.00656,179.84425,387.21317,186.84668,382.13254z M139.30893,352.13556 c0.29359,1.17511,1.31715,1.30133,2.06454,1.67529c14.7278,7.3689,29.64757,14.32632,44.62073,21.18494 c4.82198,2.20871,8.06252,1.96375,12.31839-1.44907c14.44569-11.58401,28.8232-23.20657,41.80891-36.45145 c1.04755-1.06839,2.2348-1.87399-0.23277-2.80539c-15.70168-5.92688-30.99837-12.79178-46.06494-20.17279 c-1.23975-0.6073-2.14783-0.58093-3.29639,0.27875c-16.50813,12.35565-32.85773,24.92856-49.86426,36.60571 C140.17738,351.33508,139.7541,351.75958,139.30893,352.13556z M125.30692,423.84885 c-0.6786-0.48074-0.98109-0.75745-1.3334-0.93573c-17.04699-8.62473-33.64069-18.06024-49.92925-28.03201 c-1.71204-1.0481-2.94555-0.61038-4.43452,0.23663c-12.99833,7.39423-26.23075,14.35391-39.65325,20.93991 c-2.47845,1.21609-2.43651,2.12796-0.96652,4.1608c10.3544,14.319,23.77937,24.92871,39.31938,33.07913 c2.01881,1.05881,3.60675,1.0304,5.626-0.01709c12.55841-6.51474,24.95616-13.31177,37.06639-20.62692 C115.73025,429.79739,120.41249,426.86453,125.30692,423.84885z M236.07451,271.40887 c-0.61833-0.42252-0.77017-0.57239-0.9527-0.64444c-18.23448-7.19626-36.25874-14.86745-53.67924-23.88838 c-1.53738-0.79611-2.58032-0.30209-3.83644,0.55392c-7.76518,5.29181-15.55457,10.54893-23.37646,15.75661 c-6.12006,4.07465-12.29878,8.06116-18.5887,12.17661c0.51659,0.43863,0.78226,0.74307,1.11339,0.93399 c17.32912,9.99362,34.79716,19.73111,52.68063,28.70996c1.49884,0.75259,2.54349,0.58252,3.8257-0.40152 c6.09338-4.67606,12.30295-9.20154,18.36938-13.91165C219.76157,284.38055,227.79948,277.94666,236.07451,271.40887z M79.31336,458.53586c38.18499,12.13611,75.6347,10.38626,113.3371-4.18909c-1.02257-0.5878-1.35208-0.83188-1.72006-0.98087 c-19.28743-7.80826-38.32643-16.17523-56.93427-25.49539c-1.69698-0.84998-2.77713-0.319-4.11479,0.52478 c-15.80791,9.97217-31.87456,19.49957-48.49179,28.07578C80.71057,456.8215,79.83466,456.9614,79.31336,458.53586z M60.33821,312.59427c-0.2908-0.35321-0.43855-0.64325-0.67446-0.80344c-15.32336-10.40204-29.89244-21.77368-43.73464-34.07394 c-1.85983-1.65271-2.06282-0.25446-2.40619,1.10678c-4.8924,19.39584-7.53464,39.0553-7.09511,59.09833 c0.05472,2.49515,0.84772,2.36533,2.64144,1.46432c5.23354-2.62875,10.55272-5.08704,15.78548-7.71735 C36.83603,325.64658,48.67276,319.35321,60.33821,312.59427z M7.01579,349.68967c0.95172,7.58905,1.71326,14.49841,3.10439,21.32935 c2.73078,13.40912,6.52869,26.46094,12.5936,38.78973c0.82073,1.6683,1.52756,2.18304,3.41236,1.22647 c12.51794-6.35352,24.97925-12.80765,37.28008-19.5766c2.4785-1.36389,2.05044-1.91003,0.00226-3.18643 c-12.51829-7.80145-24.79255-15.97958-36.87511-24.43832C20.17882,359.38516,13.9647,354.73587,7.01579,349.68967z M241.46783,275.0542c-14.12106,11.43002-27.9903,22.40967-42.22299,32.91821c-1.51129,1.11578-0.54622,1.51553,0.46133,2.0051 c14.28062,6.93912,28.82823,13.26083,43.6449,18.96899c1.94762,0.75034,2.41293,0.20078,2.43958-1.77982 c0.16058-11.94803-0.10178-23.88089-1.41029-35.76154C243.79593,286.09848,243.02853,280.79425,241.46783,275.0542z M115.83785,208.70807c-9.35439-3.18446-18.2208-6.55344-27.82069-6.84459c-13.55075-0.41096-25.16606,4.91638-36.01514,12.43512 c-1.59572,1.1059-1.28401,1.84645-0.0172,2.96974c6.65912,5.90453,13.69668,11.33792,20.67023,16.85452 c1.34785,1.06625,2.39602,1.01041,3.79077,0.1758c3.72545-2.22928,7.53222-4.32222,11.29343-6.49229 C97.45348,222.20163,106.47646,215.59175,115.83785,208.70807z M199.83415,380.12454 c0.47765,0.47534,0.58624,0.66739,0.74568,0.73004c11.73839,4.61447,23.48653,9.20416,35.21713,13.83823 c1.923,0.75967,2.39813-0.13968,2.80414-1.81802c2.64192-10.92007,4.06168-22.03177,5.24242-33.17538 c0.6306-5.95126,0.98286-11.93201,1.46074-17.89944C230.82936,355.58243,215.6441,368.03644,199.83415,380.12454z M237.5721,264.90018c1.21883-0.02371,1.36293-0.41116,0.71417-2.56815c-4.56238-15.16934-11.81715-28.93271-21.57109-41.40863 c-1.20735-1.54433-1.95473-1.71835-3.53732-0.37794c-8.09547,6.85641-16.43166,13.41403-25.12263,19.51024 c-2.59041,1.81705-2.58189,1.90683,0.26955,3.32584c15.55374,7.74028,31.4727,14.64981,47.672,20.91989 C236.55965,264.51929,237.12517,264.73044,237.5721,264.90018z M17.81049,264.30188 c0.79893-0.08197,1.02169-0.05106,1.19393-0.13019c16.16314-7.42682,31.88374-15.71663,47.47197-24.27043 c2.01377-1.10501,1.19347-1.74721-0.01477-2.68503c-6.54718-5.0816-13.1058-10.15907-19.18242-15.80107 c-1.59768-1.48343-2.45914-1.27446-3.88937,0.13724c-7.7146,7.61461-13.61427,16.51314-18.61202,26.04517 C22.02621,252.84558,19.58651,258.2435,17.81049,264.30188z M146.4444,205.02266c-0.06801,1.77393,0.96138,2.86937,2.70552,2.95569 c1.87639,0.09286,3.06987-0.87521,3.04585-2.86444c-0.02179-1.79736-1.12985-2.66304-2.85077-2.89583 C147.62703,202.3708,146.51222,203.2534,146.4444,205.02266z M103.3985,63.30869c-1.80573,0.0561-2.78379,1.10377-2.79017,2.89069 c-0.00655,1.83694,1.09224,2.82875,2.85029,2.81056c1.77122-0.01833,2.73819-1.08656,2.83462-2.93602 C106.07917,64.40421,105.26804,63.25061,103.3985,63.30869z" style="fill: rgb(225, 187, 157);"/></g><g id="__id174_s9tbihn71w"><path d="M179.32391,51.29831c-4.97964,2.59298-9.40985,5.94187-13.67159,9.50083 c-22.81842,19.05551-40.47426,42.03424-52.36272,69.3392c-2.74659,6.30824-2.60501,6.33818,2.29349,10.95334 c1.7655,1.66341,3.49573,3.38371,5.06847,5.2262c1.30593,1.52995,2.03616,1.48123,3.02803-0.3047 c5.61066-10.10245,13.1036-18.70263,21.54322-26.5061c12.29042-11.36395,26.03406-20.22809,42.55626-24.10047 c4.13628-0.96945,8.39197-1.57504,12.62738-0.57486c5.88718,1.39025,7.5489,5.65094,4.22427,10.72052 c-2.39984,3.65944-5.44063,6.79145-8.58228,9.80202c-12.71078,12.18048-23.98297,25.47632-32.40648,41.0481 c-3.57465,6.60817-6.44765,13.49991-8.9619,20.56218c-0.81126,2.27887-1.57858,5.22972-4.83432,4.08282 c-3.28828-1.15842-1.94565-3.98657-1.18149-6.22705c7.00694-20.54271,18.40681-38.4093,33.21455-54.16967 c5.19531-5.52951,10.85948-10.61054,15.78253-16.40009c0.67586-0.79482,1.97212-1.60145,1.38025-2.77787 c-0.57883-1.15063-2.01599-0.68282-3.06546-0.63484c-10.07803,0.46073-19.18365,4.12714-27.61331,9.2683 c-19.46559,11.87183-34.71243,27.70229-44.08305,48.75524c-2.30415,5.1767-4.42421,10.43138-5.14535,16.12756 c-0.74829,5.91086,2.10922,10.78671,7.72093,12.94717c5.6906,2.19078,11.63869,2.33871,17.64035,2.19321 c10.00072-0.24249,20.0033-0.9971,29.98305,0.62741c23.07912,3.7569,40.91296,15.317,53.65813,35.02271 c11.41551,17.64993,18.17744,36.91911,21.44055,57.56059c3.40291,21.52588,3.02811,43.14221,1.5535,64.77158 c-1.24652,18.28513-3.42006,36.42786-8.45718,54.14935c-9.11978,32.08478-29.67657,52.93063-61.38936,62.82755 c-28.80225,8.98859-58.13112,10.51645-87.50896,3.94049c-30.30244-6.78284-54.96926-22.72922-72.33483-48.88913 c-8.85909-13.34555-13.28748-28.5358-16.71522-44.00955c-4.31968-19.5-5.75979-39.2627-3.98054-59.13272 c2.33224-26.04556,7.30028-51.50815,19.80103-74.87851c8.86928-16.5813,20.86947-30.19582,37.77164-39.15576 c15.11037-8.01012,30.68667-9.49277,46.98074-4.44041c6.45995,2.00305,12.75254,4.59831,19.55426,5.43033 c3.34125,0.40872,6.65213,0.3938,9.98732,0.13303c2.2688-0.1774,4.59929,0.08409,4.83226,2.85507 c0.23526,2.79878-2.02126,3.40971-4.30412,3.54492c-1.91853,0.1136-3.88174,0.41135-5.75583,0.14302 c-4.01638-0.57504-7.10777,0.90904-10.23585,3.27583c-11.94653,9.03917-24.31904,17.45525-37.54844,24.54639 c-0.43227,0.23172-0.80872,0.5676-1.18037,0.83293c-0.03782,1.01471,0.76419,1.22353,1.28366,1.59808 c14.69337,10.59451,29.87441,20.44681,45.38721,29.79428c1.07854,0.6499,1.98666,1.1561,3.30608,0.31985 c14.26131-9.03885,28.29713-18.41342,42.3555-28.02443c-0.67778-1.18997-1.81023-1.44418-2.70894-1.94261 c-6.10416-3.38536-12.11801-6.91747-17.92982-10.78734c-0.33675-0.22423-0.6895-0.42516-1.01953-0.65849 c-1.71999-1.21591-2.98853-2.78949-1.68144-4.84026c1.41008-2.21242,3.4574-1.69614,5.29559-0.42012 c6.7397,4.67847,13.92006,8.61571,21.0022,12.72844c2.3959,1.39136,4.02469,1.18983,6.21278-0.4097 c8.57869-6.2711,17.08624-12.6245,25.24731-19.43529c3.4449-2.87491,3.47359-2.86981-0.18849-5.70175 c-14.09464-10.89961-30.17311-15.63594-47.85722-15.40883c-8.18701,0.10513-16.37785,0.96298-24.55875,0.10262 c-2.80315-0.29478-5.62575-0.80208-8.32745-1.59427c-10.24517-3.0041-15.57482-12.06995-13.38038-22.62416 c1.07475-5.16887,2.75529-10.1676,5.06031-14.91074c0.95319-1.96143,0.63279-3.29544-0.70963-4.88309 c-11.62163-13.74452-26.48634-21.59731-44.11997-24.46398c-6.80644-1.10651-13.64803-1.74778-20.55423-1.25705 c-0.99123,0.07045-2.03299-0.08215-3.11974,0.66175c0.69585,1.35857,2.13561,1.67419,3.26434,2.3056 c15.82018,8.8502,29.60177,20.10144,40.53822,34.63655c4.69826,6.24425,8.21263,13.21371,11.57712,20.24503 c0.92585,1.93486,1.10666,3.89354-1.09561,4.96667c-2.21861,1.08109-3.61752-0.34195-4.58931-2.21921 c-1.57991-3.052-3.06943-6.15239-4.7076-9.17239c-10.55179-19.4525-26.90012-32.80923-45.80463-43.46785 c-2.02537-1.14191-4.0868-2.23059-6.04066-3.48547c-1.75842-1.12933-3.13781-2.5999-2.87834-4.95735 c0.27294-2.48021,2.00643-3.70533,4.09947-4.37759c4.47865-1.43855,9.15317-1.77934,13.80234-1.65459 c10.14812,0.27229,20.15614,1.60403,29.88226,4.68565c1.07663,0.34112,2.46573,1.53134,3.2858,0.44535 c0.69904-0.9257-0.49151-2.24197-0.99924-3.30471c-7.85902-16.4496-17.05871-32.14407-26.80997-47.52848 c-2.0568-3.24501-4.04683-6.53493-5.97345-9.85876c-0.96013-1.65646-1.83637-3.3868-2.52166-5.17161 c-1.13434-2.95425-2.27868-6.10554,0.14819-8.89087c2.54656-2.92267,5.88506-2.04522,9.05727-1.21364 c4.652,1.2195,8.84193,3.4733,12.84091,6.06576c15.33542,9.94162,29.72982,21.02064,41.80116,34.87827 c0.46503,0.53386,0.9603,1.04951,1.3624,1.62855c1.15721,1.66649,1.59039,3.44974-0.25194,4.83485 c-1.77634,1.3355-3.53368,0.69438-4.79349-0.91983c-6.215-7.96342-13.8031-14.48145-21.6302-20.75926 c-7.18643-5.76397-14.49101-11.35724-22.52085-15.92855c-2.64368-1.50504-5.33788-2.88719-8.31195-3.62939 c-0.56763-0.14167-1.18548-0.50947-1.7159-0.04516c-0.70343,0.61579-0.23277,1.36946,0.05129,1.94487 c1.1172,2.26317,2.2051,4.55553,3.52304,6.70253C74.0695,79.9091,84.18822,95.76738,92.55874,112.651 c2.47261,4.98737,5.01208,9.95005,6.8166,15.20832c0.88471,2.57801,2.9217,3.45345,4.89331,4.60006 c1.29606,0.75374,1.48112-0.36119,1.80684-1.19627c7.01274-17.97987,16.86057-34.34399,29.42215-48.89423 c4.28323-4.9613,5.25294-9.07182,3.84724-15.47567c-3.98466-18.15331-2.05103-36.20728,3.37488-53.9174 c0.40475-1.32111,1.14235-2.58843,0.95119-4.2615c-1.62863,0.41266-2.59775,1.6076-3.62843,2.60425 c-12.25279,11.84842-21.36212,25.8151-27.85517,41.53177c-0.81033,1.96143-1.5223,3.97194-2.46471,5.86782 c-0.82121,1.65204-2.28352,2.33076-4.06454,1.54233c-1.65066-0.73073-2.13486-2.21074-1.56855-3.8046 c1.14967-3.2356,2.33202-6.47454,3.75851-9.59429c7.05127-15.42088,16.24163-29.36102,28.76608-40.94181 c2.31033-2.13625,4.80193-4.05903,7.73067-5.28343c4.34079-1.81474,7.32761,0.37343,6.91077,5.01754 c-0.21906,2.44106-1.07863,4.72616-1.82089,7.03388c-5.67355,17.64039-7.58113,35.55169-3.8998,53.86663 c0.19272,0.95877,0.04681,2.35028,0.99632,2.67233c1.05011,0.3562,1.60622-0.99164,2.28673-1.6731 c7.67287-7.68336,15.85907-14.73563,25.09604-20.49897c1.88605-1.17681,3.79367-2.35702,5.97559-2.91743 c4.08418-1.049,6.81863,1.1861,6.62897,5.38815c-0.106,2.34751-0.79553,4.57932-1.47891,6.80067 c-3.54926,11.53766-6.43549,23.19421-6.70099,35.35822c-0.04266,1.95206-0.72607,3.73933-3.08499,3.74889 c-2.54984,0.01036-3.13718-1.82453-3.11987-3.95043c0.09384-11.54411,2.58159-22.67355,5.85378-33.66747 c0.57549-1.93345,1.08119-3.88792,1.59302-5.83954C179.62012,51.82493,179.45186,51.61963,179.32391,51.29831z M11.81834,345.13385 c0.94686,0.76859,1.6139,1.34229,2.31349,1.87308c18.06248,13.70566,37.03544,26.0719,56.12761,38.26962 c1.72996,1.10516,2.86661,0.68457,4.34962-0.17844c16.60574-9.66345,33.03905-19.60519,49.06411-30.21063 c0.78432-0.51904,1.51767-1.11511,2.45097-1.80569c-0.71214-0.44382-1.11819-0.72742-1.55083-0.9621 c-19.12588-10.37451-37.57005-21.86798-55.5751-34.06467c-2.04021-1.38205-3.47401-1.21771-5.42672-0.07874 c-10.56764,6.16394-21.34223,11.95441-32.26758,17.46008C24.91966,338.65363,18.50428,341.80908,11.81834,345.13385z M185.33583,310.2735c-0.52716-0.39975-0.87161-0.74106-1.28188-0.9577c-1.519-0.80206-3.06361-1.55524-4.59154-2.34061 c-16.18294-8.31815-32.0619-17.18774-47.7724-26.36169c-1.34402-0.78479-2.41399-1.36777-4.0955-0.31235 c-17.20728,10.80072-34.79741,20.96085-52.42883,31.0484c-1.63039,0.93286-2.77001,1.56543-0.38876,3.13925 c18.05238,11.93118,36.42878,23.31805,55.49608,33.57111c1.42261,0.76495,2.46593,0.7894,3.84999-0.15662 c16.95184-11.58694,33.26402-24.04681,49.71362-36.31912C184.30682,311.23337,184.72406,310.81161,185.33583,310.2735z M138.62711,422.97266c0.70862,0.4516,1.09587,0.75467,1.52808,0.96579c18.51956,9.04462,37.39417,17.28232,56.50906,24.98465 c2.2072,0.88931,3.85498,0.71295,5.86111-0.56454c16.82701-10.71588,27.23282-26.09818,33.14145-44.87494 c0.6803-2.16187-0.5547-2.35767-1.88684-2.87622c-12.51338-4.87109-25.04607-9.69431-37.50746-14.69519 c-2.09355-0.84021-3.46976-0.53763-5.17532,0.75876c-12.22879,9.29504-24.71188,18.23605-37.60753,26.59164 C148.59222,416.43588,143.71805,419.64508,138.62711,422.97266z M123.35328,275.60245 c-16.83932-10.07178-32.77264-20.60869-48.22223-31.86775c-1.1992-0.8739-2.0313-0.36848-3.00972,0.18092 c-16.75602,9.40878-33.79748,18.26727-51.2247,26.36786c-2.31955,1.07822-1.99516,1.73718-0.32427,3.20453 c14.00542,12.29919,28.71469,23.67554,44.1231,34.16315c1.62305,1.10474,2.80092,0.96445,4.36259,0.04703 c12.11799-7.11874,24.29333-14.13989,36.40945-21.26178C111.36315,282.97092,117.17008,279.35449,123.35328,275.60245z M186.84668,382.13254c-18.25293-7.92972-35.50948-16.11023-52.48074-24.88232c-1.63864-0.84698-2.61362-0.18073-3.80914,0.62476 c-10.23292,6.89447-20.68309,13.44873-31.23449,19.84149c-6.81312,4.12784-13.66196,8.19666-20.45396,12.26746 c0.25163,0.85074,0.85237,1.03418,1.35509,1.33658c16.12119,9.69589,32.51167,18.90381,49.30587,27.39175 c1.66646,0.84225,2.84367,0.76688,4.39655-0.23868c11.03622-7.14648,22.13116-14.20471,32.86195-21.80783 C173.36363,392.00656,179.84425,387.21317,186.84668,382.13254z M139.30893,352.13556 c0.29359,1.17511,1.31715,1.30133,2.06454,1.67529c14.7278,7.3689,29.64757,14.32632,44.62073,21.18494 c4.82198,2.20871,8.06252,1.96375,12.31839-1.44907c14.44569-11.58401,28.8232-23.20657,41.80891-36.45145 c1.04755-1.06839,2.2348-1.87399-0.23277-2.80539c-15.70168-5.92688-30.99837-12.79178-46.06494-20.17279 c-1.23975-0.6073-2.14783-0.58093-3.29639,0.27875c-16.50813,12.35565-32.85773,24.92856-49.86426,36.60571 C140.17738,351.33508,139.7541,351.75958,139.30893,352.13556z M125.30692,423.84885 c-0.6786-0.48074-0.98109-0.75745-1.3334-0.93573c-17.04699-8.62473-33.64069-18.06024-49.92925-28.03201 c-1.71204-1.0481-2.94555-0.61038-4.43452,0.23663c-12.99833,7.39423-26.23075,14.35391-39.65325,20.93991 c-2.47845,1.21609-2.43651,2.12796-0.96652,4.1608c10.3544,14.319,23.77937,24.92871,39.31938,33.07913 c2.01881,1.05881,3.60675,1.0304,5.626-0.01709c12.55841-6.51474,24.95616-13.31177,37.06639-20.62692 C115.73025,429.79739,120.41249,426.86453,125.30692,423.84885z M236.07451,271.40887 c-0.61833-0.42252-0.77017-0.57239-0.9527-0.64444c-18.23448-7.19626-36.25874-14.86745-53.67924-23.88838 c-1.53738-0.79611-2.58032-0.30209-3.83644,0.55392c-7.76518,5.29181-15.55457,10.54893-23.37646,15.75661 c-6.12006,4.07465-12.29878,8.06116-18.5887,12.17661c0.51659,0.43863,0.78226,0.74307,1.11339,0.93399 c17.32912,9.99362,34.79716,19.73111,52.68063,28.70996c1.49884,0.75259,2.54349,0.58252,3.8257-0.40152 c6.09338-4.67606,12.30295-9.20154,18.36938-13.91165C219.76157,284.38055,227.79948,277.94666,236.07451,271.40887z M79.31336,458.53586c38.18499,12.13611,75.6347,10.38626,113.3371-4.18909c-1.02257-0.5878-1.35208-0.83188-1.72006-0.98087 c-19.28743-7.80826-38.32643-16.17523-56.93427-25.49539c-1.69698-0.84998-2.77713-0.319-4.11479,0.52478 c-15.80791,9.97217-31.87456,19.49957-48.49179,28.07578C80.71057,456.8215,79.83466,456.9614,79.31336,458.53586z M60.33821,312.59427c-0.2908-0.35321-0.43855-0.64325-0.67446-0.80344c-15.32336-10.40204-29.89244-21.77368-43.73464-34.07394 c-1.85983-1.65271-2.06282-0.25446-2.40619,1.10678c-4.8924,19.39584-7.53464,39.0553-7.09511,59.09833 c0.05472,2.49515,0.84772,2.36533,2.64144,1.46432c5.23354-2.62875,10.55272-5.08704,15.78548-7.71735 C36.83603,325.64658,48.67276,319.35321,60.33821,312.59427z M7.01579,349.68967c0.95172,7.58905,1.71326,14.49841,3.10439,21.32935 c2.73078,13.40912,6.52869,26.46094,12.5936,38.78973c0.82073,1.6683,1.52756,2.18304,3.41236,1.22647 c12.51794-6.35352,24.97925-12.80765,37.28008-19.5766c2.4785-1.36389,2.05044-1.91003,0.00226-3.18643 c-12.51829-7.80145-24.79255-15.97958-36.87511-24.43832C20.17882,359.38516,13.9647,354.73587,7.01579,349.68967z M241.46783,275.0542c-14.12106,11.43002-27.9903,22.40967-42.22299,32.91821c-1.51129,1.11578-0.54622,1.51553,0.46133,2.0051 c14.28062,6.93912,28.82823,13.26083,43.6449,18.96899c1.94762,0.75034,2.41293,0.20078,2.43958-1.77982 c0.16058-11.94803-0.10178-23.88089-1.41029-35.76154C243.79593,286.09848,243.02853,280.79425,241.46783,275.0542z M115.83785,208.70807c-9.35439-3.18446-18.2208-6.55344-27.82069-6.84459c-13.55075-0.41096-25.16606,4.91638-36.01514,12.43512 c-1.59572,1.1059-1.28401,1.84645-0.0172,2.96974c6.65912,5.90453,13.69668,11.33792,20.67023,16.85452 c1.34785,1.06625,2.39602,1.01041,3.79077,0.1758c3.72545-2.22928,7.53222-4.32222,11.29343-6.49229 C97.45348,222.20163,106.47646,215.59175,115.83785,208.70807z M199.83415,380.12454 c0.47765,0.47534,0.58624,0.66739,0.74568,0.73004c11.73839,4.61447,23.48653,9.20416,35.21713,13.83823 c1.923,0.75967,2.39813-0.13968,2.80414-1.81802c2.64192-10.92007,4.06168-22.03177,5.24242-33.17538 c0.6306-5.95126,0.98286-11.93201,1.46074-17.89944C230.82936,355.58243,215.6441,368.03644,199.83415,380.12454z M237.5721,264.90018c1.21883-0.02371,1.36293-0.41116,0.71417-2.56815c-4.56238-15.16934-11.81715-28.93271-21.57109-41.40863 c-1.20735-1.54433-1.95473-1.71835-3.53732-0.37794c-8.09547,6.85641-16.43166,13.41403-25.12263,19.51024 c-2.59041,1.81705-2.58189,1.90683,0.26955,3.32584c15.55374,7.74028,31.4727,14.64981,47.672,20.91989 C236.55965,264.51929,237.12517,264.73044,237.5721,264.90018z M17.81049,264.30188 c0.79893-0.08197,1.02169-0.05106,1.19393-0.13019c16.16314-7.42682,31.88374-15.71663,47.47197-24.27043 c2.01377-1.10501,1.19347-1.74721-0.01477-2.68503c-6.54718-5.0816-13.1058-10.15907-19.18242-15.80107 c-1.59768-1.48343-2.45914-1.27446-3.88937,0.13724c-7.7146,7.61461-13.61427,16.51314-18.61202,26.04517 C22.02621,252.84558,19.58651,258.2435,17.81049,264.30188z M146.4444,205.02266c-0.06801,1.77393,0.96138,2.86937,2.70552,2.95569 c1.87639,0.09286,3.06987-0.87521,3.04585-2.86444c-0.02179-1.79736-1.12985-2.66304-2.85077-2.89583 C147.62703,202.3708,146.51222,203.2534,146.4444,205.02266z M103.3985,63.30869c-1.80573,0.0561-2.78379,1.10377-2.79017,2.89069 c-0.00655,1.83694,1.09224,2.82875,2.85029,2.81056c1.77122-0.01833,2.73819-1.08656,2.83462-2.93602 C106.07917,64.40421,105.26804,63.25061,103.3985,63.30869z" style="fill: rgb(225, 187, 157);"/></g></svg>